{
  "accessors": [
    {
      "bufferView": 2,
      "componentType": 5126,
      "count": 424,
      "max": [
        -65.06563568115234,
        18.169105529785156,
        -2.8341314792633057
      ],
      "min": [
        -76.88810729980469,
        -9.7335205078125,
        -30.53331756591797
      ],
      "type": "VEC3"
    },
    {
      "bufferView": 2,
      "byteOffset": 5088,
      "componentType": 5126,
      "count": 424,
      "max": [
        1.0,
        0.9673858284950256,
        0.960333526134491
      ],
      "min": [
        -1.0,
        -0.9673871994018555,
        -0.9603330492973328
      ],
      "type": "VEC3"
    },
    {
      "bufferView": 1,
      "componentType": 5126,
      "count": 424,
      "max": [
        0.9959471225738525,
        0.31742063164711
      ],
      "min": [
        0.48101648688316345,
        0.003581831930205226
      ],
      "type": "VEC2"
    },
    {
      "bufferView": 0,
      "componentType": 5125,
      "count": 1872,
      "type": "SCALAR"
    },
    {
      "bufferView": 2,
      "byteOffset": 10176,
      "componentType": 5126,
      "count": 424,
      "max": [
        -65.06563568115234,
        18.169109344482422,
        -2.8341312408447266
      ],
      "min": [
        -76.88810729980469,
        -9.733528137207031,
        -30.53331756591797
      ],
      "type": "VEC3"
    },
    {
      "bufferView": 2,
      "byteOffset": 15264,
      "componentType": 5126,
      "count": 424,
      "max": [
        1.0,
        0.9673858284950256,
        0.960333526134491
      ],
      "min": [
        -1.0,
        -0.9673871397972107,
        -0.9603331089019775
      ],
      "type": "VEC3"
    },
    {
      "bufferView": 1,
      "byteOffset": 3392,
      "componentType": 5126,
      "count": 424,
      "max": [
        0.9959471225738525,
        0.31742063164711
      ],
      "min": [
        0.48101648688316345,
        0.003581831930205226
      ],
      "type": "VEC2"
    },
    {
      "bufferView": 0,
      "byteOffset": 7488,
      "componentType": 5125,
      "count": 1872,
      "type": "SCALAR"
    },
    {
      "bufferView": 2,
      "byteOffset": 20352,
      "componentType": 5126,
      "count": 2440,
      "max": [
        2.290691375732422,
        155.17059326171875,
        23.349851608276367
      ],
      "min": [
        -80.62850952148438,
        -34.52374267578125,
        -23.220027923583984
      ],
      "type": "VEC3"
    },
    {
      "bufferView": 2,
      "byteOffset": 49632,
      "componentType": 5126,
      "count": 2440,
      "max": [
        0.99997878074646,
        0.9999898672103882,
        0.9999514818191528
      ],
      "min": [
        -0.99997878074646,
        -0.9962156414985657,
        -1.0
      ],
      "type": "VEC3"
    },
    {
      "bufferView": 1,
      "byteOffset": 6784,
      "componentType": 5126,
      "count": 2440,
      "max": [
        0.9955847263336182,
        0.9865555763244629
      ],
      "min": [
        0.0032556611113250256,
        0.06516488641500473
      ],
      "type": "VEC2"
    },
    {
      "bufferView": 0,
      "byteOffset": 14976,
      "componentType": 5125,
      "count": 9426,
      "type": "SCALAR"
    },
    {
      "bufferView": 2,
      "byteOffset": 78912,
      "componentType": 5126,
      "count": 12108,
      "max": [
        2.2702980041503906,
        156.67959594726563,
        21.521055221557617
      ],
      "min": [
        -80.60810852050781,
        -35.128662109375,
        -27.09991455078125
      ],
      "type": "VEC3"
    },
    {
      "bufferView": 2,
      "byteOffset": 224208,
      "componentType": 5126,
      "count": 12108,
      "max": [
        1.0,
        1.0,
        1.0
      ],
      "min": [
        -1.0,
        -1.0,
        -1.0
      ],
      "type": "VEC3"
    },
    {
      "bufferView": 1,
      "byteOffset": 26304,
      "componentType": 5126,
      "count": 12108,
      "max": [
        0.9987630248069763,
        0.9943453073501587
      ],
      "min": [
        0.0023684483021497726,
        0.010433221235871315
      ],
      "type": "VEC2"
    },
    {
      "bufferView": 0,
      "byteOffset": 52680,
      "componentType": 5125,
      "count": 29805,
      "type": "SCALAR"
    },
    {
      "bufferView": 2,
      "byteOffset": 369504,
      "componentType": 5126,
      "count": 207,
      "max": [
        -7.083495140075684,
        144.09762573242188,
        19.238601684570313
      ],
      "min": [
        -71.25431823730469,
        20.997547149658203,
        5.205398082733154
      ],
      "type": "VEC3"
    },
    {
      "bufferView": 2,
      "byteOffset": 371988,
      "componentType": 5126,
      "count": 207,
      "max": [
        0.9002643823623657,
        0.5807880163192749,
        0.9876940250396729
      ],
      "min": [
        -0.9002645015716553,
        -0.4806101620197296,
        0.43531808257102966
      ],
      "type": "VEC3"
    },
    {
      "bufferView": 1,
      "byteOffset": 123168,
      "componentType": 5126,
      "count": 207,
      "max": [
        0.8446676731109619,
        0.9871158599853516
      ],
      "min": [
        0.07733667641878128,
        0.6208449602127075
      ],
      "type": "VEC2"
    },
    {
      "bufferView": 0,
      "byteOffset": 171900,
      "componentType": 5125,
      "count": 696,
      "type": "SCALAR"
    },
    {
      "bufferView": 2,
      "byteOffset": 374472,
      "componentType": 5126,
      "count": 253,
      "max": [
        -5.4422712326049805,
        151.4119873046875,
        5.438411712646484
      ],
      "min": [
        -72.89553833007813,
        -20.452701568603516,
        -6.240221977233887
      ],
      "type": "VEC3"
    },
    {
      "bufferView": 2,
      "byteOffset": 377508,
      "componentType": 5126,
      "count": 253,
      "max": [
        0.9963862895965576,
        0.9907777309417725,
        0.999350368976593
      ],
      "min": [
        -0.9963863492012024,
        -0.9629765748977661,
        -0.9997487664222717
      ],
      "type": "VEC3"
    },
    {
      "bufferView": 1,
      "byteOffset": 124824,
      "componentType": 5126,
      "count": 253,
      "max": [
        0.9948825836181641,
        0.8363564014434814
      ],
      "min": [
        0.3674026429653168,
        0.49969375133514404
      ],
      "type": "VEC2"
    },
    {
      "bufferView": 0,
      "byteOffset": 174684,
      "componentType": 5125,
      "count": 1068,
      "type": "SCALAR"
    },
    {
      "bufferView": 2,
      "byteOffset": 380544,
      "componentType": 5126,
      "count": 424,
      "max": [
        -1.4497201442718506,
        18.169105529785156,
        -2.8341312408447266
      ],
      "min": [
        -13.272186279296875,
        -9.733522415161133,
        -30.53331756591797
      ],
      "type": "VEC3"
    },
    {
      "bufferView": 2,
      "byteOffset": 385632,
      "componentType": 5126,
      "count": 424,
      "max": [
        1.0,
        0.96738600730896,
        0.9603330492973328
      ],
      "min": [
        -1.0,
        -0.9673864245414734,
        -0.9603328704833984
      ],
      "type": "VEC3"
    },
    {
      "bufferView": 1,
      "byteOffset": 126848,
      "componentType": 5126,
      "count": 424,
      "max": [
        0.9959471225738525,
        0.31742063164711
      ],
      "min": [
        0.48101648688316345,
        0.003581831930205226
      ],
      "type": "VEC2"
    },
    {
      "bufferView": 0,
      "byteOffset": 178956,
      "componentType": 5125,
      "count": 1872,
      "type": "SCALAR"
    },
    {
      "bufferView": 2,
      "byteOffset": 390720,
      "componentType": 5126,
      "count": 424,
      "max": [
        -1.4497201442718506,
        18.169105529785156,
        -2.8341312408447266
      ],
      "min": [
        -13.272186279296875,
        -9.733522415161133,
        -30.53331756591797
      ],
      "type": "VEC3"
    },
    {
      "bufferView": 2,
      "byteOffset": 395808,
      "componentType": 5126,
      "count": 424,
      "max": [
        1.0,
        0.96738600730896,
        0.9603330492973328
      ],
      "min": [
        -1.0,
        -0.9673864245414734,
        -0.9603328704833984
      ],
      "type": "VEC3"
    },
    {
      "bufferView": 1,
      "byteOffset": 130240,
      "componentType": 5126,
      "count": 424,
      "max": [
        0.9959471225738525,
        0.31742063164711
      ],
      "min": [
        0.48101648688316345,
        0.003581831930205226
      ],
      "type": "VEC2"
    },
    {
      "bufferView": 0,
      "byteOffset": 186444,
      "componentType": 5125,
      "count": 1872,
      "type": "SCALAR"
    }
  ],
  "asset": {
    "extras": {
      "author": "Sidra (https://sketchfab.com/Sidramax)",
      "license": "CC-BY-4.0 (http://creativecommons.org/licenses/by/4.0/)",
      "source": "https://sketchfab.com/3d-models/2022-porsche-taycan-cross-turismo-e76773c1dccb4f41b9876b1b4a994b5f",
      "title": "2022 Porsche Taycan Cross Turismo"
    },
    "generator": "Sketchfab-15.30.0",
    "version": "2.0"
  },
  "bufferViews": [
    {
      "buffer": 0,
      "byteLength": 193932,
      "name": "floatBufferViews",
      "target": 34963
    },
    {
      "buffer": 0,
      "byteLength": 133632,
      "byteOffset": 193932,
      "byteStride": 8,
      "name": "floatBufferViews",
      "target": 34962
    },
    {
      "buffer": 0,
      "byteLength": 400896,
      "byteOffset": 327564,
      "byteStride": 12,
      "name": "floatBufferViews",
      "target": 34962
    }
  ],
  "buffers": [
    {
      "byteLength": 728460,
      "uri": "scene.bin"
    }
  ],
  "extensionsUsed": [
    "KHR_materials_clearcoat",
    "KHR_materials_specular"
  ],
  "images": [
    {
      "uri": "textures/Textures_Body_2_baseColor.png"
    },
    {
      "uri": "textures/Textures_Body_1_baseColor.png"
    }
  ],
  "materials": [
    {
      "doubleSided": true,
      "extensions": {
        "KHR_materials_clearcoat": {
          "clearcoatFactor": 0.38251572564649877,
          "clearcoatRoughnessFactor": 0.2943639534810505
        }
      },
      "name": "Textures_Body_2",
      "pbrMetallicRoughness": {
        "baseColorTexture": {
          "index": 0
        },
        "metallicFactor": 0.0,
        "roughnessFactor": 0.8704960068752181
      }
    },
    {
      "alphaMode": "BLEND",
      "doubleSided": true,
      "extensions": {
        "KHR_materials_clearcoat": {
          "clearcoatFactor": 1.0,
          "clearcoatRoughnessFactor": 0.04
        },
        "KHR_materials_specular": {
          "specularColorFactor": [
            1.0,
            1.0,
            1.0
          ],
          "specularFactor": 0.628
        }
      },
      "name": "Textures_Body_1",
      "pbrMetallicRoughness": {
        "baseColorFactor": [
          1.0,
          1.0,
          1.0,
          0.9
        ],
        "baseColorTexture": {
          "index": 1
        },
        "metallicFactor": 0.0,
        "roughnessFactor": 0.8789051924190436
      }
    },
    {
      "alphaMode": "BLEND",
      "doubleSided": true,
      "extensions": {
        "KHR_materials_clearcoat": {
          "clearcoatFactor": 1.0,
          "clearcoatRoughnessFactor": 0.04
        },
        "KHR_materials_specular": {
          "specularColorFactor": [
            1.0,
            1.0,
            1.0
          ],
          "specularFactor": 0.628
        }
      },
      "name": "Glass",
      "pbrMetallicRoughness": {
        "baseColorFactor": [
          0.0196078,
          0.0196078,
          0.0196078,
          0.9
        ],
        "metallicFactor": 0.0,
        "roughnessFactor": 0.8704960068752181
      }
    },
    {
      "alphaMode": "BLEND",
      "doubleSided": true,
      "extensions": {
        "KHR_materials_clearcoat": {
          "clearcoatFactor": 1.0,
          "clearcoatRoughnessFactor": 0.04
        }
      },
      "name": "Glass_Light",
      "pbrMetallicRoughness": {
        "baseColorFactor": [
          0.0196078,
          0.0196078,
          0.0196078,
          0.3
        ],
        "metallicFactor": 0.0,
        "roughnessFactor": 0.8659290123473531
      }
    }
  ],
  "meshes": [
    {
      "name": "Wheel_BR_Textures Body 2_0",
      "primitives": [
        {
          "attributes": {
            "NORMAL": 1,
            "POSITION": 0,
            "TEXCOORD_0": 2
          },
          "indices": 3,
          "material": 0,
          "mode": 4
        }
      ]
    },
    {
      "name": "Wheel_FR_Textures Body 2_0",
      "primitives": [
        {
          "attributes": {
            "NORMAL": 5,
            "POSITION": 4,
            "TEXCOORD_0": 6
          },
          "indices": 7,
          "material": 0,
          "mode": 4
        }
      ]
    },
    {
      "name": "Body_Textures Body 1_0",
      "primitives": [
        {
          "attributes": {
            "NORMAL": 9,
            "POSITION": 8,
            "TEXCOORD_0": 10
          },
          "indices": 11,
          "material": 1,
          "mode": 4
        }
      ]
    },
    {
      "name": "Body_Textures Body 2_0",
      "primitives": [
        {
          "attributes": {
            "NORMAL": 13,
            "POSITION": 12,
            "TEXCOORD_0": 14
          },
          "indices": 15,
          "material": 0,
          "mode": 4
        }
      ]
    },
    {
      "name": "Body_Glass_0",
      "primitives": [
        {
          "attributes": {
            "NORMAL": 17,
            "POSITION": 16,
            "TEXCOORD_0": 18
          },
          "indices": 19,
          "material": 2,
          "mode": 4
        }
      ]
    },
    {
      "name": "Body_Glass Light_0",
      "primitives": [
        {
          "attributes": {
            "NORMAL": 21,
            "POSITION": 20,
            "TEXCOORD_0": 22
          },
          "indices": 23,
          "material": 3,
          "mode": 4
        }
      ]
    },
    {
      "name": "Wheel_FL_Textures Body 2_0",
      "primitives": [
        {
          "attributes": {
            "NORMAL": 25,
            "POSITION": 24,
            "TEXCOORD_0": 26
          },
          "indices": 27,
          "material": 0,
          "mode": 4
        }
      ]
    },
    {
      "name": "Wheel_BL_Textures Body 2_0",
      "primitives": [
        {
          "attributes": {
            "NORMAL": 29,
            "POSITION": 28,
            "TEXCOORD_0": 30
          },
          "indices": 31,
          "material": 0,
          "mode": 4
        }
      ]
    }
  ],
  "nodes": [
    {
      "children": [
        1
      ],
      "matrix": [
        1.0,
        0.0,
        0.0,
        0.0,
        0.0,
        2.220446049250313e-16,
        -1.0,
        0.0,
        0.0,
        1.0,
        2.220446049250313e-16,
        0.0,
        0.0,
        0.0,
        0.0,
        1.0
      ],
      "name": "Sketchfab_model"
    },
    {
      "children": [
        2
      ],
      "matrix": [
        0.02539999969303608,
        0.0,
        0.0,
        0.0,
        0.0,
        0.0,
        0.02539999969303608,
        0.0,
        0.0,
        -0.02539999969303608,
        0.0,
        0.0,
        0.0,
        0.0,
        0.0,
        1.0
      ],
      "name": "8291b6e0104946b1b00514c1aa26a88b.fbx"
    },
    {
      "children": [
        3,
        6,
        9,
        15,
        18
      ],
      "name": "RootNode"
    },
    {
      "children": [
        4
      ],
      "matrix": [
        1.0,
        0.0,
        0.0,
        0.0,
        0.0,
        0.9999999999999999,
        -1.1924880638503055e-08,
        0.0,
        0.0,
        1.1924880638503055e-08,
        0.9999999999999999,
        0.0,
        -23.173812866210938,
        10.083198547363281,
        -40.94023132324219,
        1.0
      ],
      "name": "Wheel_BR"
    },
    {
      "children": [
        5
      ],
      "matrix": [
        0.7285544276237488,
        0.0,
        0.0,
        0.0,
        0.0,
        4.46110923897028e-17,
        -0.7285544276237488,
        0.0,
        -0.0,
        0.7285544276237488,
        4.46110923897028e-17,
        0.0,
        51.71051025390625,
        12.155000686645508,
        3.072896957397461,
        1.0
      ],
      "name": "Object_4"
    },
    {
      "mesh": 0,
      "name": "Wheel_BR_Textures Body 2_0"
    },
    {
      "children": [
        7
      ],
      "matrix": [
        1.0,
        0.0,
        0.0,
        0.0,
        0.0,
        0.9999999999999999,
        -1.1924880638503055e-08,
        0.0,
        0.0,
        1.1924880638503055e-08,
        0.9999999999999999,
        0.0,
        -23.173812866210938,
        10.083199501037598,
        40.41818618774414,
        1.0
      ],
      "name": "Wheel_FR"
    },
    {
      "children": [
        8
      ],
      "matrix": [
        0.7285544276237488,
        0.0,
        0.0,
        0.0,
        0.0,
        4.46110923897028e-17,
        -0.7285544276237488,
        0.0,
        -0.0,
        0.7285544276237488,
        4.46110923897028e-17,
        0.0,
        51.71051025390625,
        12.155000686645508,
        3.072892189025879,
        1.0
      ],
      "name": "Object_7"
    },
    {
      "mesh": 1,
      "name": "Wheel_FR_Textures Body 2_0"
    },
    {
      "children": [
        10
      ],
      "matrix": [
        1.0,
        0.0,
        0.0,
        0.0,
        0.0,
        0.9999999403953419,
        1.6292067079122444e-07,
        0.0,
        0.0,
        -1.6292067079122444e-07,
        0.9999999403953419,
        0.0,
        1.33514404296875e-05,
        0.0,
        -0.7871627807617188,
        1.0
      ],
      "name": "Body"
    },
    {
      "children": [
        11,
        12,
        13,
        14
      ],
      "matrix": [
        0.7285544276237488,
        0.0,
        0.0,
        0.0,
        0.0,
        4.461096829881915e-17,
        -0.7285524010658264,
        0.0,
        -0.0,
        0.7285524010658264,
        4.461096829881915e-17,
        0.0,
        28.536680221557617,
        22.238157272338867,
        44.27810287475586,
        1.0
      ],
      "name": "Object_10"
    },
    {
      "mesh": 2,
      "name": "Body_Textures Body 1_0"
    },
    {
      "mesh": 3,
      "name": "Body_Textures Body 2_0"
    },
    {
      "mesh": 4,
      "name": "Body_Glass_0"
    },
    {
      "mesh": 5,
      "name": "Body_Glass Light_0"
    },
    {
      "children": [
        16
      ],
      "matrix": [
        1.0,
        0.0,
        0.0,
        0.0,
        0.0,
        0.9999999403953419,
        1.6292067079122444e-07,
        0.0,
        0.0,
        -1.6292067079122444e-07,
        0.9999999403953419,
        0.0,
        23.173843383789063,
        10.083200454711914,
        40.41818618774414,
        1.0
      ],
      "name": "Wheel_FL"
    },
    {
      "children": [
        17
      ],
      "matrix": [
        0.7285544276237488,
        0.0,
        0.0,
        0.0,
        0.0,
        4.461096829881915e-17,
        -0.7285524010658264,
        0.0,
        -0.0,
        0.7285524010658264,
        4.461096829881915e-17,
        0.0,
        5.362854957580566,
        12.15496826171875,
        3.072883129119873,
        1.0
      ],
      "name": "Object_16"
    },
    {
      "mesh": 6,
      "name": "Wheel_FL_Textures Body 2_0"
    },
    {
      "children": [
        19
      ],
      "matrix": [
        1.0,
        0.0,
        0.0,
        0.0,
        0.0,
        0.9999999403953419,
        1.6292067079122444e-07,
        0.0,
        0.0,
        -1.6292067079122444e-07,
        0.9999999403953419,
        0.0,
        23.173843383789063,
        10.083200454711914,
        -40.94022750854492,
        1.0
      ],
      "name": "Wheel_BL"
    },
    {
      "children": [
        20
      ],
      "matrix": [
        0.7285544276237488,
        0.0,
        0.0,
        0.0,
        0.0,
        4.461096829881915e-17,
        -0.7285524010658264,
        0.0,
        -0.0,
        0.7285524010658264,
        4.461096829881915e-17,
        0.0,
        5.362854957580566,
        12.15496826171875,
        3.072883129119873,
        1.0
      ],
      "name": "Object_19"
    },
    {
      "mesh": 7,
      "name": "Wheel_BL_Textures Body 2_0"
    }
  ],
  "samplers": [
    {
      "magFilter": 9729,
      "minFilter": 9987,
      "wrapS": 10497,
      "wrapT": 10497
    }
  ],
  "scene": 0,
  "scenes": [
    {
      "name": "Sketchfab_Scene",
      "nodes": [
        0
      ]
    }
  ],
  "textures": [
    {
      "sampler": 0,
      "source": 0
    },
    {
      "sampler": 0,
      "source": 1
    }
  ]
}
